<svg xmlns="http://www.w3.org/2000/svg" class="css-grg60t" viewBox="0 0 370.085 52.38">
  <g>
    <path d="M79.444 2.745c-3.794-3.795-10.51-.778-13.04 3.114 0 0 10.56-.777 10.56 9.73 4.475-4.476 7.198-8.123 2.48-12.844"/>
    <path d="m71.484 9.307-30.67 29.54 3.358 2.323.804 3.503-1.973 2.104-3.211 1.07-4.672-4.67.586-2.531L68.253 8.1c-1.029-.217-2.198-.343-3.551-.343L34.147 38.31 30.99 49.95a1.1 1.1 0 0 0-.667-.243h-.006c-19.489.067-25.217-4.056-25.532-6.523-.306-2.388 3.667-5.893 13.237-8.336 5.117-1.307 7.356-2.765 7.262-4.73-.22-4.533-16.848-7.593-23.988-8.698a1.12 1.12 0 0 0-1.282.938 1.123 1.123 0 0 0 .938 1.282c11.464 1.774 21.991 4.913 22.088 6.584-.002.011-.284 1.097-5.574 2.447-9.88 2.523-15.453 6.56-14.91 10.799.683 5.326 10.812 8.484 27.14 8.484l.632-.001c.044 0 .082-.021.125-.027l-.002.007.168-.04c.052-.016.108-.017.157-.04l13.298-3.228 30.944-30.944s1.094-5.584-3.533-8.374"/>
  </g>
  <path d="M120.277 1.672c8.582 0 13.541 7.077 13.541 13.54 0 6.576-4.904 13.541-13.875 13.541h-10.365v11.925H102V1.672zm-.557 20.283c4.124 0 6.687-3.288 6.687-6.687 0-3.455-2.62-6.687-6.353-6.687h-10.476v13.374zm29.98 19.503c-7.802 0-13.932-6.352-13.932-14.878 0-8.581 6.13-14.878 13.931-14.878 3.957 0 7.077 1.616 9.083 4.18v-3.4h7.411v28.196h-7.41v-3.455c-2.007 2.563-5.127 4.235-9.084 4.235m1.28-6.575c4.459 0 8.025-3.455 8.025-8.359 0-4.848-3.566-8.247-8.024-8.247-4.625 0-7.913 3.4-7.913 8.247 0 4.904 3.288 8.359 7.913 8.359M194.725 0h7.41v40.678h-7.41v-3.455c-2.006 2.563-5.127 4.235-9.083 4.235-7.802 0-13.931-6.352-13.931-14.878 0-8.581 6.13-14.878 13.93-14.878 3.957 0 7.078 1.616 9.084 4.18zm-7.802 34.883c4.458 0 8.025-3.455 8.025-8.359 0-4.848-3.567-8.247-8.025-8.247-4.625 0-7.912 3.4-7.912 8.247 0 4.904 3.287 8.359 7.912 8.359m33.546 6.575c-6.966 0-12.315-4.123-13.708-8.693l6.631-1.95c.947 2.675 3.622 4.68 7.355 4.68 2.842 0 4.681-1.337 4.681-2.897 0-1.393-1.058-2.173-3.12-2.786l-7.189-2.117c-4.012-1.17-6.965-3.511-6.965-7.523 0-4.737 5.127-8.47 11.312-8.47 6.074 0 10.699 2.898 12.482 7.132l-6.52 1.895c-1.003-1.783-3.065-3.288-6.018-3.288-2.285 0-4.012 1.226-4.012 2.564 0 1.114.78 1.783 2.34 2.229l7.022 2.006c4.235 1.226 7.912 2.953 7.912 8.024 0 5.294-5.015 9.194-12.203 9.194m34.325-29.756c7.802 0 13.876 6.297 13.876 14.878 0 8.526-6.074 14.878-13.876 14.878-4.012 0-7.076-1.672-9.138-4.235V52.38H238.3V12.482h7.356v3.4c2.062-2.564 5.126-4.18 9.138-4.18m-1.281 23.18c4.625 0 7.913-3.454 7.913-8.358 0-4.848-3.288-8.247-7.913-8.247-4.458 0-8.024 3.4-8.024 8.247 0 4.904 3.566 8.359 8.024 8.359m32.932 6.576c-7.8 0-13.93-6.352-13.93-14.878 0-8.581 6.13-14.878 13.93-14.878 3.957 0 7.077 1.616 9.083 4.18v-3.4h7.411v28.196h-7.41v-3.455c-2.007 2.563-5.127 4.235-9.084 4.235m1.282-6.575c4.458 0 8.024-3.455 8.024-8.359 0-4.848-3.566-8.247-8.024-8.247-4.625 0-7.913 3.4-7.913 8.247 0 4.904 3.288 8.359 7.913 8.359m35.719 6.575c-8.637 0-14.99-6.464-14.99-14.934 0-8.414 6.353-14.822 14.934-14.822 7.801 0 12.65 5.015 13.764 9.25l-6.854 1.95c-.613-2.34-3.232-4.68-6.91-4.68-4.68 0-7.69 3.844-7.69 8.302 0 4.402 3.01 8.359 7.69 8.359 3.678 0 6.297-2.173 6.91-4.514l6.854 1.895c-1.115 4.29-5.963 9.194-13.708 9.194m32.654 0c-9.028 0-15.324-5.962-15.324-14.878 0-8.414 5.906-14.878 14.766-14.878 9.25 0 14.544 6.408 14.544 14.488 0 .892 0 1.727-.167 2.619h-21.9c.502 3.622 3.065 6.408 8.192 6.408 3.566 0 5.74-1.616 6.854-3.733l6.631 1.95c-1.616 3.678-6.185 8.024-13.596 8.024m-8.08-17.274h14.878c-.335-3.455-3.01-6.241-7.411-6.241-4.291 0-7.077 3.009-7.467 6.24"/>
</svg>
